<svg width="40" height="32" viewBox="0 0 40 32" fill="none" xmlns="http://www.w3.org/2000/svg">
<path d="M12 18C13.1046 18 14 17.1046 14 16C14 14.8954 13.1046 14 12 14C10.8954 14 10 14.8954 10 16C10 17.1046 10.8954 18 12 18Z" fill="currentColor"/>
<path d="M22 16C22 17.1046 21.1046 18 20 18C18.8954 18 18 17.1046 18 16C18 14.8954 18.8954 14 20 14C21.1046 14 22 14.8954 22 16Z" fill="currentColor"/>
<path d="M30 16C30 17.1046 29.1046 18 28 18C26.8954 18 26 17.1046 26 16C26 14.8954 26.8954 14 28 14C29.1046 14 30 14.8954 30 16Z" fill="currentColor"/>
</svg>
